<svg xmlns="http://www.w3.org/2000/svg" viewBox="0 0 648.39 406.16"><defs><style>.cls-1{fill:#f0e622;}.cls-2{fill:#f17a16;}.cls-3{fill:#f5d717;}.cls-4{fill:#f7a416;}</style></defs><g id="Layer_2" data-name="Layer 2"><g id="Layer_1-2" data-name="Layer 1"><path class="cls-1" d="M648,219.74c-.47,7.57-5.65,15-15.59,20.84L363.19,397c-.52.3-1.05.6-1.59.88-19.33,10.36-48.67,11-69.27,1.8A54.55,54.55,0,0,1,287,397l-271-156.45c-11-6.33-16.27-14.74-15.87-23,0-.73,0,1.71,0-13.54C0,188.4-2.25,175.63,15.81,165.59L285,9.14C305-2.45,336.75-3,358,7.43c1.12.54,2.19,1.11,3.23,1.71l.41.24L632.16,165.59c11.18,6.46,16.46,15,15.85,23.49C648.2,203.08,648.68,218.13,648,219.74Z"/><path class="cls-2" d="M647.63,183.91c0,.18.09.37.12.56C647.72,184.28,647.67,184.09,647.63,183.91Z"/><path class="cls-2" d="M647.24,182.39c.06.17.11.35.16.52C647.35,182.74,647.3,182.56,647.24,182.39Z"/><path class="cls-2" d="M646.72,180.87c.07.16.14.33.2.5C646.85,181.2,646.79,181,646.72,180.87Z"/><path class="cls-2" d="M646.07,179.36l.22.48Z"/><path class="cls-2" d="M647.89,185.42c0,.2.06.4.08.61C648,185.82,647.92,185.62,647.89,185.42Z"/><path class="cls-2" d="M648,186.9c0,.23,0,.46,0,.69C648.05,187.36,648,187.13,648,186.9Z"/><path class="cls-2" d="M641.19,172.49l-.41-.42Z"/><path class="cls-2" d="M645.28,177.86l.26.46Z"/><path class="cls-2" d="M634.14,166.8c.16.09.3.2.45.3C634.44,167,634.3,166.89,634.14,166.8Z"/><path class="cls-2" d="M637.73,169.35l.46.39Z"/><path class="cls-2" d="M636,168.05l.48.36Z"/><path class="cls-2" d="M648,189.08c0-.26,0-.53,0-.79-.23,7.77-5.43,15.48-15.62,21.41L363.19,366.15c-.51.3-1.06.55-1.59.83v30.93c.54-.28,1.07-.58,1.59-.88L632.42,240.58c9.94-5.79,15.12-13.27,15.59-20.84C648.68,218.13,648.32,216.17,648,189.08Z"/><path class="cls-2" d="M639.32,170.69l.44.41Z"/><path class="cls-2" d="M632.16,165.59a.57.57,0,0,1,.13.08l-.13-.08L361.6,9.38h0Z"/><path class="cls-2" d="M643.3,174.91l.33.44Z"/><path class="cls-2" d="M642.1,173.48c.13.14.25.28.37.43C642.35,173.76,642.23,173.62,642.1,173.48Z"/><path class="cls-2" d="M644.35,176.37c.11.15.21.31.3.46C644.56,176.68,644.46,176.52,644.35,176.37Z"/><path class="cls-3" d="M632.16,165.59,361.19,9.14C340.09-3,306-3,285,9.14L15.81,165.59C-5.14,177.77-5,197.52,16.07,209.7L287,366.15c21.1,12.18,55.19,12.18,76.15,0L632.41,209.7c21-12.18,20.85-31.93-.25-44.11Z"/><path class="cls-4" d="M292.33,368.79v30.92c20.6,9.17,49.94,8.56,69.27-1.8.54-.28,1.07-.58,1.59-.88V366.15C343.89,377.36,313.5,378.22,292.33,368.79Z"/></g></g></svg>